<?xml version="1.0" encoding="UTF-8"?>
<svg width="158px" height="55px" viewBox="0 0 158 55" version="1.1" xmlns="http://www.w3.org/2000/svg" xmlns:xlink="http://www.w3.org/1999/xlink">
    <!-- Generator: Sketch 45.2 (43514) - http://www.bohemiancoding.com/sketch -->
    <title>jambox</title>
    <desc>Created with Sketch.</desc>
    <defs>
        <linearGradient x1="-48.8012708%" y1="-15.0199392%" x2="73.9028357%" y2="94.2937654%" id="linearGradient-1">
            <stop stop-color="#3023AE" offset="0%"></stop>
            <stop stop-color="#C86DD7" offset="100%"></stop>
        </linearGradient>
    </defs>
    <g id="Page-1" stroke="none" stroke-width="1" fill="none" fill-rule="evenodd">
        <g id="Desktop-HD" transform="translate(-255.000000, -25.000000)" fill="url(#linearGradient-1)">
            <path d="M281.78845,44.1227811 C282.450714,42.8644793 282.947405,41.5068582 283.278537,40.0498771 C283.444103,39.8180847 283.559998,39.5283485 283.626224,39.1806598 C283.69245,38.8329711 283.841458,38.5432349 284.07325,38.3114425 C284.040137,38.245216 284.040137,38.2038252 284.07325,38.1872686 C284.106363,38.170712 284.12292,38.1458774 284.12292,38.1127642 C284.288486,37.8809718 284.437493,37.657461 284.569946,37.4422251 C284.702399,37.2269893 284.801737,36.9869221 284.867963,36.7220165 C284.83485,36.6557901 284.793459,36.606121 284.743789,36.5730078 C284.694119,36.5398946 284.636172,36.4902255 284.569946,36.4239991 C284.801738,35.927301 285.000414,35.4388886 285.16598,34.9587471 C285.331546,34.4786056 285.613005,34.0729749 286.010363,33.7418428 C286.010363,33.5762768 286.051754,33.4438259 286.134537,33.3444863 C286.21732,33.2451467 286.316658,33.1706431 286.432554,33.1209733 C286.54845,33.0713035 286.672623,33.0133562 286.805076,32.9471298 C286.937529,32.8809034 287.036867,32.7815653 287.103093,32.6491125 C287.533565,32.6491125 287.798467,32.582887 287.897806,32.4504342 C288.162712,32.4835474 288.477283,32.5249383 288.841528,32.5746081 C289.205773,32.6242779 289.503788,32.6491125 289.73558,32.6491125 C289.868033,32.7153389 289.950815,32.7732861 289.983928,32.8229559 C290.017041,32.8726257 290.116379,32.8809039 290.281945,32.8477907 C290.348172,32.9802435 290.430953,33.0795817 290.530293,33.1458081 C290.629633,33.2120345 290.712414,33.327929 290.778641,33.493495 C290.811754,33.5597214 290.861423,33.634225 290.92765,33.717008 C290.993876,33.799791 291.060101,33.8742946 291.126328,33.9405211 C291.192554,34.1060871 291.225667,34.2964852 291.225667,34.511721 C291.225667,34.7269569 291.25878,34.9173549 291.325006,35.082921 C291.391232,35.1491474 291.424345,35.1988164 291.424345,35.2319297 C291.424345,35.2981561 291.407789,35.3726597 291.374676,35.4554427 C291.341562,35.5382257 291.358119,35.6127293 291.424345,35.6789557 C291.457458,35.7451821 291.407789,35.7782948 291.275337,35.7782948 C291.142884,36.1425401 290.985598,36.4736672 290.803476,36.7716861 C290.621353,37.0697049 290.447511,37.3842757 290.281945,37.7154077 C290.116379,38.0465398 289.934259,38.3611105 289.73558,38.6591294 L289.139545,39.5531815 C289.040206,39.7187475 288.916033,39.8760329 288.767024,40.0250423 C288.618014,40.1740518 288.493842,40.3313371 288.394502,40.4969032 C288.328276,40.5962428 288.270328,40.6955809 288.220658,40.7949205 C288.170989,40.8942602 288.096485,40.9935983 287.997145,41.0929379 C287.864693,41.2585039 287.748798,41.4075111 287.649459,41.539964 C287.550119,41.6724168 287.467337,41.8379803 287.401111,42.0366596 C287.367998,42.0366596 287.351441,42.0532159 287.351441,42.0863291 C287.351441,42.1194423 287.318328,42.1359987 287.252102,42.1359987 C287.252102,42.2022251 287.235546,42.243616 287.202432,42.2601726 C287.169319,42.2767292 287.169319,42.3181201 287.202432,42.3843465 C287.036866,42.3843465 286.937528,42.4422937 286.904415,42.55819 C286.871302,42.6740862 286.821633,42.7817025 286.755406,42.8810421 C286.68918,42.9472685 286.631233,42.9803812 286.581563,42.9803812 C286.531893,42.9803812 286.490502,42.9969376 286.457389,43.0300508 C286.291823,43.22873 286.142816,43.460519 286.010363,43.7254247 C285.87791,43.9903303 285.745459,44.2055629 285.613007,44.371129 C285.414327,44.371129 285.281876,44.4456326 285.21565,44.594642 C285.149424,44.7436514 285.033529,44.818155 284.867963,44.818155 C284.801737,44.6857022 284.818293,44.5780859 284.917633,44.4953029 C285.016972,44.4125198 285.083198,44.3049035 285.116311,44.1724507 C285.083198,44.1724507 285.066641,44.139338 285.066641,44.0731116 C285.066641,44.0068852 285.050085,43.9572161 285.016972,43.9241029 C284.950745,44.0565557 284.88452,44.1558939 284.818294,44.2221203 C284.520275,44.2883467 284.329877,44.4870229 284.247094,44.818155 C284.164311,45.1492871 284.023582,45.4307451 283.824902,45.6625376 C283.692449,45.6625376 283.626224,45.5963121 283.626224,45.4638593 C283.626224,45.3314065 283.593111,45.2320684 283.526885,45.1658419 C283.394432,45.2320684 283.31165,45.3148501 283.278537,45.4141897 C283.245424,45.5135294 283.220589,45.6211457 283.204033,45.7370419 C283.187476,45.8529381 283.162642,45.9605544 283.129528,46.059894 C283.096415,46.1592337 283.03019,46.2420154 282.93085,46.3082419 C282.864624,46.3413551 282.814955,46.3496332 282.781842,46.3330766 C282.748728,46.31652 282.699059,46.3082419 282.632833,46.3082419 C282.665946,46.2420154 282.707337,46.1923464 282.757007,46.1592332 C282.806677,46.12612 282.798398,46.0598945 282.732172,45.9605549 C282.599719,46.0267813 282.516937,46.1426758 282.483824,46.3082419 C282.450711,46.4738079 282.367929,46.5897024 282.235476,46.6559288 C282.16925,46.4903627 282.185806,46.3413556 282.285146,46.2089027 C282.384486,46.0764499 282.401042,45.9274427 282.334815,45.7618767 C282.003683,45.9936691 281.705669,45.9936691 281.440763,45.7618767 C281.540103,45.5300842 281.614607,45.2982953 281.664276,45.0665028 C281.713946,44.8347104 281.78845,44.6029214 281.887789,44.371129 C281.920903,44.3049025 281.912624,44.2635117 281.862955,44.2469551 C281.813285,44.2303984 281.78845,44.1890076 281.78845,44.1227811 Z M282.732172,48.2950243 L282.732172,48.5433721 C282.897738,48.5764853 283.021911,48.5764853 283.104694,48.5433721 C283.187477,48.5102589 283.278537,48.4771462 283.377876,48.444033 C283.576555,48.609599 283.733841,48.7999971 283.849737,49.0152329 C283.965633,49.2304688 284.156031,49.3546415 284.420937,49.3877547 C284.354711,49.6857735 284.437492,49.9175625 284.669285,50.0831285 C284.702398,50.0500153 284.718954,50.0169026 284.718954,49.9837894 C284.718954,49.9506762 284.752067,49.9341198 284.818294,49.9341198 C284.78518,50.0334595 284.793458,50.0996849 284.843128,50.1327981 C284.892798,50.1659113 284.950745,50.2155804 285.016972,50.2818068 L285.016972,51.722224 C284.884519,51.9540165 284.752068,52.1609709 284.619615,52.3430936 C284.487162,52.5252162 284.371268,52.748727 284.271928,53.0136326 C284.205702,53.1129723 284.139477,53.2288667 284.07325,53.3613196 L283.874572,53.7586761 C283.709006,54.0566949 283.559999,54.387822 283.427546,54.7520673 L283.030189,55.8447976 C282.997076,55.9110241 282.955685,55.9689713 282.906015,56.0186411 C282.856346,56.0683109 282.831511,56.1428145 282.831511,56.2421541 C282.632832,56.4739466 282.475546,56.7222919 282.35965,56.9871976 C282.243754,57.2521032 282.069912,57.4838922 281.83812,57.6825714 C281.672554,58.0137035 281.50699,58.3282742 281.341424,58.6262931 C281.175858,58.9243119 281.010295,59.255439 280.844729,59.6196843 C280.844729,59.6859107 280.83645,59.743858 280.819894,59.7935278 C280.803337,59.8431976 280.795059,59.9011448 280.795059,59.9673712 C280.530153,60.2653901 280.348033,60.6461863 280.248694,61.1097712 C280.149354,61.573356 279.967234,61.9541522 279.702329,62.2521711 C279.702329,62.5501899 279.619547,62.8150916 279.453981,63.0468841 C279.453981,63.2124501 279.387755,63.39457 279.255303,63.5932492 C278.990397,64.354853 278.708939,65.0998889 278.41092,65.8283795 C278.112901,66.55687 277.79833,67.2687933 277.467198,67.9641706 C277.136066,68.9244536 276.813217,69.8598877 276.498642,70.7705009 C276.184067,71.681114 275.844661,72.5999917 275.480416,73.5271615 L275.281738,73.5271615 C275.083058,73.9907464 274.85127,74.4543243 274.586364,74.9179092 C274.321458,75.1828149 274.089669,75.563611 273.89099,76.0603091 C273.559858,76.3252148 273.2784,76.6646201 273.046607,77.0785352 C272.814815,77.4924502 272.516801,77.7821864 272.152555,77.9477525 C272.119442,78.0139789 272.119442,78.0470916 272.152555,78.0470916 C272.185669,78.0470916 272.202225,78.0802043 272.202225,78.1464307 C272.036659,78.0802043 271.904208,78.113317 271.804868,78.2457698 C271.705529,78.3782227 271.573078,78.4444481 271.407512,78.4444481 C271.407512,78.4113349 271.390956,78.3947785 271.357842,78.3947785 C271.324729,78.3947785 271.308173,78.3782222 271.308173,78.345109 L270.935651,78.4692829 C270.786642,78.5189527 270.679025,78.5768999 270.612799,78.6431263 C270.447233,78.5768999 270.314782,78.5851781 270.215442,78.6679611 C270.116103,78.7507441 269.983652,78.8086914 269.818086,78.8418046 C269.65252,78.908031 269.462122,78.9163092 269.246886,78.8666394 C269.03165,78.8169696 268.857808,78.8749168 268.725356,79.0404828 C268.427337,78.9742564 268.170713,78.9908128 267.955477,79.0901524 C267.740242,79.189492 267.483618,79.2060484 267.185599,79.139822 L267.185599,79.2391611 C267.119373,79.3053875 267.044869,79.3385002 266.962086,79.3385002 C266.879303,79.3385002 266.8048,79.3716129 266.738573,79.4378393 C266.738573,79.3716129 266.730295,79.3385002 266.713738,79.3385002 C266.697182,79.3385002 266.688904,79.3053875 266.688904,79.2391611 C266.490224,79.3053875 266.266714,79.3219438 266.018365,79.2888306 C265.770015,79.2557174 265.546505,79.2557174 265.347825,79.2888306 C265.248486,79.3219438 265.149148,79.3633347 265.049808,79.4130045 C264.950468,79.4626744 264.867687,79.4378398 264.80146,79.3385002 C264.337875,79.3385002 263.857741,79.3550566 263.361043,79.3881698 C262.864345,79.421283 262.417323,79.4047266 262.019965,79.3385002 C261.589493,79.305387 261.175584,79.3136652 260.778226,79.363335 C260.380867,79.4130048 260.000071,79.3550575 259.635826,79.1894915 C259.404033,79.421284 259.089463,79.5040657 258.692104,79.4378393 C258.758331,79.2722733 258.865947,79.1812133 259.014956,79.1646567 C259.163966,79.1481001 259.288138,79.1232656 259.387478,79.0901524 C259.354365,79.023926 259.230192,79.0073696 259.014956,79.0404828 C258.799721,79.073596 258.658992,79.0073706 258.592765,78.8418046 C258.394086,78.908031 258.220244,78.9577001 258.071235,78.9908133 C257.922225,79.0239265 257.781496,79.0735955 257.649043,79.139822 C257.61593,79.139822 257.599374,79.0404838 257.599374,78.8418046 C257.533147,78.8418046 257.516591,78.8500828 257.549704,78.8666394 C257.582818,78.883196 257.582818,78.9080305 257.549704,78.9411437 C257.516591,78.9411437 257.466922,78.9328655 257.400696,78.9163089 C257.334469,78.8997523 257.2848,78.9080305 257.251687,78.9411437 C257.152347,78.8086909 257.036453,78.7010746 256.904,78.6182916 C256.771547,78.5355085 256.572871,78.5272304 256.307965,78.5934568 C256.241739,78.461004 256.134123,78.3947785 255.985113,78.3947785 L255.562922,78.3947785 C255.596035,78.2292125 255.695373,78.1547089 255.860939,78.1712655 C256.026505,78.1878221 256.1424,78.1133185 256.208626,77.9477525 C256.109287,77.8484129 255.968558,77.8318565 255.786435,77.8980829 C255.604312,77.9643093 255.48014,78.0305348 255.413913,78.0967612 C255.347687,78.0305348 255.281461,77.9725875 255.215235,77.9229177 C255.149009,77.8732479 255.149009,77.7987443 255.215235,77.6994047 C255.149009,77.6662915 255.107618,77.6745696 255.091061,77.7242395 C255.074504,77.7739093 255.04967,77.7656311 255.016557,77.6994047 C254.983443,77.6000651 255,77.4510579 255.066226,77.2523786 C255.132453,77.1861522 255.173844,77.177874 255.1904,77.2275438 C255.206957,77.2772136 255.231791,77.3020482 255.264904,77.3020482 C255.331131,77.2358218 255.339409,77.1944309 255.289739,77.1778743 C255.240069,77.1613177 255.231791,77.1199268 255.264904,77.0537004 C255.62915,77.0537004 255.927164,76.9543622 256.158957,76.755683 C256.390749,76.5570038 256.70532,76.4576656 257.102678,76.4576656 C257.135791,76.5901185 257.119235,76.6646221 257.053009,76.6811787 C256.986782,76.6977353 256.937113,76.7556825 256.904,76.8550221 C256.970226,76.8550221 257.019895,76.8384658 257.053009,76.8053526 L257.202017,76.6563439 C257.202017,76.7225703 257.23513,76.7391266 257.301356,76.7060134 C257.400696,76.639787 257.516591,76.590118 257.649043,76.5570048 C257.781496,76.5238916 257.880834,76.4576661 257.947061,76.3583265 C258.211966,76.3583265 258.435477,76.2838229 258.6176,76.1348135 C258.799723,75.9858041 259.023233,75.8616314 259.288139,75.7622918 C259.420592,75.8616314 259.553043,75.795406 259.685495,75.5636135 C259.851061,75.5305003 260.000069,75.4973876 260.132521,75.4642744 C260.264974,75.4311612 260.380869,75.3318231 260.480208,75.166257 C260.480208,75.1331438 260.463652,75.1165875 260.430539,75.1165875 C260.397426,75.1165875 260.380869,75.0834748 260.380869,75.0172484 C260.28153,74.9841351 260.19047,74.9841351 260.107687,75.0172484 C260.024904,75.0503616 259.917287,75.1000306 259.784835,75.166257 C259.817948,74.9344646 259.966955,74.7937356 260.231861,74.7440658 C260.496766,74.694396 260.711999,74.5867797 260.877565,74.4212136 C261.043131,74.48744 261.192138,74.5039964 261.324591,74.4708832 L261.721947,74.3715441 C261.788174,74.3715441 261.862677,74.3881004 261.94546,74.4212136 C262.028244,74.4543268 262.102747,74.4708832 262.168974,74.4708832 C262.268313,74.43777 262.409042,74.3881009 262.591165,74.3218745 C262.773287,74.2556481 262.89746,74.1894227 262.963686,74.1231962 C263.096139,74.1894227 263.245147,74.1894227 263.410713,74.1231962 C263.576279,74.0569698 263.692173,73.9741881 263.758399,73.8748484 C263.725286,73.9079616 263.692174,73.924518 263.65906,73.924518 C263.526608,73.924518 263.460382,73.9079616 263.460382,73.8748484 C263.559722,73.808622 263.617669,73.7341184 263.634226,73.6513354 C263.650782,73.5685524 263.708729,73.4940488 263.808069,73.4278224 C263.907409,73.4278224 263.957078,73.4443787 263.957078,73.477492 C264.18887,73.4112655 264.395825,73.3119274 264.577947,73.1794746 C264.76007,73.0470218 264.950468,72.9476836 265.149147,72.8814572 C265.414053,72.7821176 265.687233,72.7158922 265.968695,72.682779 C266.250157,72.6496658 266.473668,72.5503276 266.639234,72.3847616 C266.90414,72.3516484 267.144207,72.2688666 267.359443,72.1364138 C267.574679,72.003961 267.765077,71.8715101 267.930643,71.7390573 C267.996869,71.7721705 268.054816,71.7721705 268.104486,71.7390573 C268.154156,71.7059441 268.212103,71.6893877 268.27833,71.6893877 C268.344556,71.6893877 268.377669,71.5900496 268.377669,71.3913704 C268.443895,71.3582572 268.501842,71.3251445 268.551512,71.2920312 C268.601182,71.258918 268.659129,71.2258053 268.725356,71.1926921 C269.089601,70.7291072 269.437284,70.298642 269.768416,69.9012835 C270.099548,69.503925 270.347894,68.990678 270.51346,68.3615271 C270.745252,68.1959611 270.885981,67.9558939 270.935651,67.6413185 C270.985321,67.326743 271.109494,67.0866759 271.308173,66.9211098 L271.308173,66.5734229 C271.440626,66.4409701 271.506851,66.2422938 271.506851,65.9773882 L271.65586,65.9773882 C271.622747,65.7787089 271.655859,65.6379799 271.755199,65.5551969 C271.854538,65.4724139 271.887651,65.3316849 271.854538,65.1330056 C272.152557,64.5700811 272.417459,63.9492178 272.649251,63.2703971 C272.881043,62.5915763 273.07972,61.921044 273.245286,61.2587798 L273.344625,61.2587798 C273.344625,61.0269874 273.41085,60.8448675 273.543303,60.7124147 C273.675756,60.5799618 273.725425,60.4309546 273.692312,60.2653886 C273.758538,60.2985018 273.791651,60.30678 273.791651,60.2902234 C273.791651,60.2736668 273.824764,60.2653886 273.89099,60.2653886 C273.924103,60.1991622 273.932381,60.1494931 273.915825,60.1163799 C273.899268,60.0832667 273.89099,60.0335977 273.89099,59.9673712 C274.056556,59.9011448 274.147616,59.7604158 274.164173,59.54518 C274.180729,59.3299441 274.255233,59.1726588 274.387686,59.0733191 C274.387686,59.0070927 274.395964,58.97398 274.41252,58.97398 C274.429077,58.97398 274.420799,58.9408673 274.387686,58.8746409 C274.553252,58.6759617 274.669146,58.4690072 274.735373,58.2537714 C274.801599,58.0385355 274.867824,57.7984684 274.934051,57.5335627 C275.198956,57.1693175 275.397633,56.8050777 275.530086,56.4408324 C275.662538,56.0765871 275.844658,55.7289037 276.076451,55.3977716 C276.010224,55.3315452 275.977112,55.2487634 275.977112,55.1494238 C276.208904,55.1494238 276.391024,54.9755821 276.523477,54.6278934 C276.65593,54.2802047 276.804937,54.0401376 276.970503,53.9076847 C277.003616,53.8414583 277.011894,53.8000674 276.995338,53.7835108 C276.978781,53.7669542 276.970503,53.7421197 276.970503,53.7090065 C277.036729,53.7090065 277.069842,53.6924501 277.069842,53.6593369 C277.069842,53.6262237 277.086398,53.6262237 277.119512,53.6593369 C277.185738,53.5931105 277.185738,53.5517196 277.119512,53.535163 C277.053285,53.5186064 277.053285,53.4772155 277.119512,53.4109891 C277.318191,53.3778759 277.417529,53.195756 277.417529,52.864624 C277.616208,52.7321711 277.781772,52.4838258 277.914224,52.1195805 C278.013564,52.0533541 278.063233,51.9788505 278.063233,51.8960675 C278.063233,51.8132845 278.096346,51.7387809 278.162572,51.6725545 C278.228799,51.6063281 278.278468,51.5483808 278.311581,51.498711 C278.344694,51.4490412 278.394363,51.391094 278.46059,51.3248676 C278.559929,51.1593015 278.659267,50.9854598 278.758607,50.8033372 C278.857947,50.6212145 278.957285,50.4308164 279.056624,50.2321372 C279.122851,50.1327976 279.205633,50.0500158 279.304972,49.9837894 C279.404312,49.917563 279.487094,49.8347812 279.55332,49.7354416 C279.619546,49.636102 279.69405,49.5284857 279.776833,49.4125894 C279.859616,49.2966932 279.884451,49.2056333 279.851337,49.1394069 L279.950677,49.1394069 C279.950677,48.9738408 280.000346,48.84139 280.099685,48.7420504 C280.199025,48.6427107 280.232138,48.5268163 280.199024,48.3943634 L280.298363,48.4937026 C280.430816,48.4274761 280.554989,48.3115817 280.670885,48.1460156 C280.786781,47.9804496 280.910954,47.8645551 281.043407,47.7983287 L281.341424,47.7983287 C281.473877,47.7652155 281.564937,47.7321028 281.614607,47.6989896 C281.664277,47.6658764 281.73878,47.6989891 281.83812,47.7983287 L282.136137,47.7983287 C282.26859,47.7983287 282.334815,47.8314414 282.334815,47.8976678 C282.202363,47.930781 282.07819,47.9804501 281.962294,48.0466765 C281.846398,48.1129029 281.738781,48.1791283 281.639442,48.2453547 C281.705668,48.3115812 281.838119,48.3281375 282.036798,48.2950243 C282.235477,48.2619111 282.367928,48.162573 282.434155,47.9970069 C282.566607,47.9638937 282.616276,48.021841 282.583163,48.1708504 C282.55005,48.3198598 282.599719,48.3612507 282.732172,48.2950243 Z M256.556313,76.9046917 C256.490087,76.9046917 256.448696,76.8881353 256.432139,76.8550221 C256.415583,76.8219089 256.374192,76.8384653 256.307965,76.9046917 L256.307965,76.9543613 C256.473531,76.9543613 256.556313,76.9378049 256.556313,76.9046917 Z M287.649459,53.4109891 C287.781911,53.1791967 287.947475,52.9722423 288.146154,52.7901196 C288.344833,52.607997 288.477284,52.3348171 288.543511,51.9705719 L288.692519,51.9705719 C288.725633,51.8712322 288.69252,51.8381195 288.59318,51.8712327 C288.493841,51.9043459 288.460728,51.8712332 288.493841,51.7718936 C288.858086,51.3414219 289.271995,50.9440694 289.73558,50.5798241 C290.199165,50.2155789 290.596518,49.7685573 290.92765,49.238746 C290.993876,49.2056328 291.026989,49.2139109 291.026989,49.2635808 C291.026989,49.3132506 291.043545,49.3049724 291.076658,49.238746 C291.275338,49.0069535 291.498848,48.8165554 291.747197,48.667546 C291.995546,48.5185366 292.202501,48.2619131 292.368067,47.8976678 L292.666084,47.8976678 C292.897877,47.6327622 293.146222,47.4340859 293.411128,47.3016331 C293.676033,47.1691803 293.907822,47.0036167 294.106502,46.8049375 C294.470747,46.7718243 294.777039,46.6228171 295.025388,46.3579114 C295.273737,46.0930058 295.613143,45.9605549 296.043614,45.9605549 C296.109841,45.9936681 296.142954,45.98539 296.142954,45.9357201 C296.142954,45.8860503 296.15951,45.8446594 296.192623,45.8115462 C296.556868,45.7453198 296.987334,45.6873726 297.484032,45.6377028 C297.98073,45.588033 298.493977,45.496973 299.023788,45.3645202 L299.197632,45.3645202 C299.214188,45.3645202 299.272135,45.3810765 299.371475,45.4141897 L300.215858,45.4141897 C300.480763,45.4141897 300.753943,45.4804152 301.035405,45.612868 C301.316868,45.7453208 301.573491,45.8115462 301.805284,45.8115462 C301.87151,45.8115462 301.912901,45.7867117 301.929457,45.7370419 C301.946014,45.6873721 301.970849,45.6625376 302.003962,45.6625376 C302.301981,45.728764 302.566882,45.8943275 302.798675,46.1592332 C303.030467,46.4241388 303.295369,46.5400333 303.593388,46.5069201 C303.858293,45.844656 304.114917,45.1906799 304.363266,44.5449724 C304.611615,43.8992649 304.917908,43.3280706 305.282153,42.8313726 L305.480831,42.8313726 C305.547057,42.7320329 305.605005,42.6492512 305.654675,42.5830247 C305.704344,42.5167983 305.745735,42.4340166 305.778848,42.3346769 C306.043754,42.2684505 306.300378,42.0863306 306.548727,41.7883118 C306.797076,41.4902929 307.086812,41.3743984 307.417944,41.4406248 C307.417944,41.5068512 307.393109,41.539964 307.34344,41.539964 C307.29377,41.539964 307.252379,41.5730767 307.219266,41.6393031 C307.351719,41.7717559 307.500726,41.7883123 307.666292,41.6889726 C307.798745,41.7551991 307.95603,41.846259 308.138153,41.9621552 C308.320275,42.0780514 308.510673,42.0697733 308.709353,41.9373204 C308.709353,42.0366601 308.725909,42.1111637 308.759022,42.1608335 C308.792135,42.2105033 308.841804,42.2684505 308.908031,42.3346769 C309.073597,42.2353373 309.222604,42.26845 309.355057,42.4340161 C309.48751,42.5995821 309.653073,42.5830257 309.851752,42.3843465 C309.984205,42.5167993 310.108378,42.6492502 310.224274,42.781703 C310.34017,42.9141558 310.480899,42.9969376 310.646465,43.0300508 C310.845145,43.5267489 311.076934,43.998605 311.341839,44.4456333 C311.606745,44.8926616 311.788865,45.4307431 311.888204,46.059894 C311.921318,46.2916865 311.91304,46.4986409 311.86337,46.6807636 C311.8137,46.8628862 311.805422,47.0698406 311.838535,47.3016331 C311.838535,47.4009727 311.821979,47.4671981 311.788865,47.5003113 L311.689526,47.5996504 C311.755753,47.7983297 311.739196,48.0052841 311.639857,48.22052 C311.540517,48.4357558 311.490848,48.675823 311.490848,48.9407286 C311.325282,49.3049739 311.176275,49.7106046 311.043822,50.1576329 C310.911369,50.6046611 310.795475,51.0765173 310.696135,51.5732154 C310.696135,51.6394418 310.646466,51.6725545 310.547126,51.6725545 C310.348447,52.6328375 310.10838,53.5848279 309.826918,54.5285543 C309.545455,55.4722807 309.239163,56.3911584 308.908031,57.2852149 C308.874918,57.3514413 308.833527,57.4507795 308.783857,57.5832323 C308.734187,57.7156851 308.709353,57.8150233 308.709353,57.8812497 C308.676239,57.9805893 308.667961,58.0799274 308.684518,58.179267 C308.701074,58.2786067 308.692796,58.3448321 308.659683,58.3779453 C308.593457,58.5766245 308.502397,58.7670226 308.3865,58.9491452 C308.270604,59.1312679 308.229213,59.371335 308.262327,59.6693539 C307.931194,60.5965237 307.666293,61.5567922 307.467614,62.5501884 C307.268934,63.5435846 307.037145,64.5535223 306.77224,65.5800317 C306.639787,65.9111637 306.49078,66.2340127 306.325214,66.5485881 C306.159648,66.8631636 306.01064,67.1694562 305.878188,67.467475 C305.613282,67.5668146 305.431162,67.7241 305.331822,67.9393359 C305.232483,68.1545717 305.050363,68.3118571 304.785457,68.4111967 C304.851684,68.2456307 304.810293,68.1628489 304.661283,68.1628489 C304.512274,68.1628489 304.371545,68.1462925 304.239092,68.1131793 C304.470884,68.1131793 304.553666,67.9641721 304.48744,67.6661533 C304.354987,67.5337004 304.263927,67.3598587 304.214257,67.1446229 C304.164587,66.929387 304.056971,66.9045525 303.891405,67.0701185 C303.825179,67.1032317 303.783788,67.0949536 303.767231,67.0452837 C303.750675,66.9956139 303.72584,66.954223 303.692727,66.9211098 C303.6265,66.954223 303.618222,66.9956139 303.667892,67.0452837 C303.717562,67.0949536 303.709284,67.1529008 303.643057,67.2191272 C303.411265,67.1197876 303.196032,66.904555 302.997353,66.5734229 C302.798674,66.2422908 302.550328,66.0932837 302.25231,66.1263969 C302.219196,66.1263969 302.210918,66.0932841 302.227475,66.0270577 C302.244031,65.9608313 302.235753,65.9277186 302.20264,65.9277186 C302.136414,65.993945 302.128135,66.0270577 302.177805,66.0270577 C302.227475,66.0270577 302.219197,66.0601704 302.15297,66.1263969 C302.053631,66.1926233 301.995684,66.1512324 301.979127,66.002223 C301.96257,65.8532135 301.937736,65.7124845 301.904623,65.5800317 C301.838396,65.5138053 301.805284,65.5138053 301.805284,65.5800317 C301.805284,65.6462581 301.788727,65.6462581 301.755614,65.5800317 C301.590048,64.6197487 301.432763,63.6677583 301.283753,62.7240319 C301.134744,61.7803055 301.093353,60.7620897 301.159579,59.6693539 C301.093353,59.5700143 301.043684,59.5534579 301.010571,59.6196843 C300.977457,59.6859107 300.927788,59.7686925 300.861562,59.8680321 C300.629769,60.0998246 300.315199,60.3316135 299.91784,60.563406 C299.520482,60.7951984 299.205911,61.0435437 298.974119,61.3084494 C298.907892,61.407789 298.816832,61.5236835 298.700936,61.6561363 C298.58504,61.7885892 298.444311,61.8879273 298.278745,61.9541537 C298.245631,62.0203801 298.229075,62.0783274 298.229075,62.1279972 C298.229075,62.177667 298.212519,62.2190579 298.179406,62.2521711 C297.219123,62.7488692 296.325079,63.3448979 295.497249,64.0402753 C294.669419,64.7356526 293.725707,65.265456 292.666084,65.6297012 C292.632971,65.6959277 292.608136,65.7621531 292.59158,65.8283795 C292.575023,65.8946059 292.550189,65.9773877 292.517076,66.0767273 C292.25217,66.0436141 291.945877,66.0684486 291.598189,66.1512316 C291.2505,66.2340147 290.944207,66.3085183 290.679302,66.3747447 C290.745528,66.4409711 290.861423,66.4740838 291.026989,66.4740838 C291.060102,66.7389894 290.993876,66.8714403 290.82831,66.8714403 C290.662744,66.8714403 290.54685,66.9542221 290.480624,67.1197881 C290.248831,67.0204485 290.050155,66.954223 289.884589,66.9211098 C289.68591,66.623091 289.470677,66.3830238 289.238884,66.2009012 C289.007092,66.0187786 288.775303,65.853215 288.543511,65.7042056 C288.311718,65.5551962 288.071651,65.406189 287.823302,65.2571795 C287.574953,65.1081701 287.334886,64.917772 287.103093,64.6859796 L287.103093,64.4376318 C287.06998,64.3714054 287.003755,64.3714054 286.904415,64.4376318 C286.473943,63.7422544 286.084869,62.930993 285.73718,62.0038233 C285.389492,61.0766535 285.165981,60.0832722 285.066641,59.0236496 C285.033528,58.8911967 285.033528,58.8166932 285.066641,58.8001365 C285.099755,58.7835799 285.132867,58.7587454 285.16598,58.7256322 C285.099754,58.2289341 285.091476,57.8067471 285.141146,57.4590584 C285.190815,57.1113697 285.281875,56.7388517 285.414328,56.3414933 C285.447441,56.2421536 285.505389,56.1428155 285.588172,56.0434759 C285.670955,55.9441363 285.745458,55.8447981 285.811685,55.7454585 C285.844798,55.5798925 285.911023,55.4308853 286.010363,55.2984325 C286.076589,55.1328664 286.134537,55.0335283 286.184206,55.0004151 C286.233876,54.9673019 286.291824,54.9341892 286.35805,54.901076 C286.556729,54.6361703 286.738849,54.3629905 286.904415,54.0815282 C287.069981,53.800066 287.252101,53.5765552 287.45078,53.4109891 L287.649459,53.4109891 Z M290.778641,60.0667104 C290.712414,60.0998236 290.654467,60.1494926 290.604797,60.2157191 C290.555128,60.2819455 290.563406,60.3150582 290.629632,60.3150582 C290.629632,60.2488318 290.662745,60.2239972 290.728971,60.2405538 C290.795198,60.2571104 290.811754,60.1991632 290.778641,60.0667104 Z M291.424345,59.5203452 C291.523685,59.5865716 291.58991,59.603128 291.623023,59.5700148 C291.755476,59.4706751 291.896205,59.3796152 292.045215,59.2968322 C292.194224,59.2140491 292.384622,59.1395456 292.616415,59.0733191 C292.781981,58.8084135 292.997213,58.6180154 293.262119,58.5021192 C293.527025,58.386223 293.758814,58.2289376 293.957493,58.0302583 C294.553531,57.7322395 295.116447,57.4176687 295.646258,57.0865367 C296.176069,56.7554046 296.697594,56.4242775 297.210849,56.0931455 C297.724104,55.7620134 298.237351,55.4474426 298.750606,55.1494238 C299.26386,54.8514049 299.801942,54.5865032 300.364866,54.3547108 C300.464206,54.1229184 300.604935,53.965633 300.787058,53.88285 C300.96918,53.800067 301.192691,53.6924506 301.457597,53.5599978 C301.556936,52.9970733 301.664553,52.4507136 301.780449,51.9209023 C301.896345,51.391091 301.987405,50.877844 302.053631,50.3811459 C301.854952,50.4473723 301.672832,50.5301541 301.507266,50.6294937 C301.3417,50.7288333 301.176137,50.8447278 301.010571,50.9771806 C300.977457,50.9771806 300.969179,51.0020152 300.985736,51.051685 C301.002292,51.1013548 300.994014,51.1427457 300.960901,51.1758589 C300.563543,51.2751985 300.191025,51.4904311 299.843336,51.8215632 C299.495647,52.1526952 299.139686,52.3679278 298.77544,52.4672675 C298.576761,52.6328335 298.386363,52.798397 298.20424,52.9639631 C298.022118,53.1295291 297.798607,53.26198 297.533701,53.3613196 C297.368135,53.593112 297.202572,53.7917883 297.037006,53.9573543 C296.87144,54.1229203 296.656207,54.2388148 296.391301,54.3050412 C295.530358,55.0004186 294.719097,55.7785673 293.957493,56.6395106 C293.195889,57.500454 292.41774,58.295159 291.623023,59.0236496 C291.556797,59.2223288 291.449181,59.371336 291.300171,59.4706756 C291.151162,59.5700152 291.026989,59.7024661 290.92765,59.8680321 C291.060102,59.8018057 291.159441,59.7604148 291.225667,59.7438582 C291.291893,59.7273016 291.358119,59.652798 291.424345,59.5203452 Z M339.951507,43.1790595 C340.017733,43.2452859 340.059124,43.2452859 340.075681,43.1790595 C340.092237,43.1128331 340.133628,43.1128331 340.199855,43.1790595 C340.266081,43.3777387 340.299194,43.5101896 340.299194,43.576416 C340.398533,43.741982 340.489593,43.9241019 340.572376,44.1227811 C340.655159,44.3214604 340.69655,44.536693 340.69655,44.7684854 C340.69655,44.9009383 340.663437,45.0333891 340.597211,45.1658419 C340.530985,45.2982948 340.514428,45.4141892 340.547541,45.5135289 C340.547541,45.5797553 340.572376,45.6377025 340.622046,45.6873723 C340.671716,45.7370421 340.679994,45.778433 340.646881,45.8115462 C340.646881,45.9439991 340.622046,46.1178408 340.572376,46.3330766 C340.522706,46.5483125 340.481316,46.7387106 340.448202,46.9042766 C340.381976,47.0698426 340.307472,47.2767971 340.224689,47.5251461 C340.141906,47.7734952 340.067403,48.0301187 340.001176,48.2950243 C340.001176,48.6592696 339.918394,49.0235094 339.752828,49.3877547 L339.256133,50.480485 C339.189906,50.6129378 339.148516,50.7536669 339.131959,50.9026763 C339.115402,51.0516857 339.090568,51.1924147 339.057455,51.3248676 C338.991228,51.4573204 338.925003,51.5649367 338.858776,51.6477197 C338.79255,51.7305027 338.742881,51.8215627 338.709768,51.9209023 C338.676654,52.0533551 338.65182,52.1940841 338.635263,52.3430936 C338.618707,52.492103 338.544203,52.5997193 338.41175,52.6659457 C338.41175,52.9639646 338.337247,53.1957535 338.188237,53.3613196 C338.039228,53.5268856 337.915055,53.7421182 337.815716,54.0070239 C337.782602,54.0401371 337.782602,54.081528 337.815716,54.1311978 C337.848829,54.1808676 337.848829,54.2222585 337.815716,54.2553717 C337.782602,54.3215981 337.757768,54.362989 337.741211,54.3795456 C337.724655,54.3961022 337.69982,54.4374931 337.666707,54.5037195 C337.60048,54.6030591 337.567368,54.7023972 337.567368,54.8017369 C337.567368,54.9010765 337.550811,54.9838582 337.517698,55.0500847 C337.451472,55.1825375 337.36869,55.298432 337.26935,55.3977716 C337.170011,55.4971112 337.103785,55.6295621 337.070672,55.7951281 C337.004446,56.1262601 336.921664,56.3911618 336.822324,56.5898411 C336.722985,56.7885203 336.640203,57.053422 336.573977,57.384554 C336.50775,57.4176673 336.474637,57.4756145 336.474637,57.5583975 C336.474637,57.6411805 336.441525,57.6825714 336.375298,57.6825714 C336.408411,57.8812507 336.391855,58.0219797 336.325629,58.1047627 C336.259402,58.1875457 336.209733,58.295162 336.17662,58.4276148 C336.242846,58.6262941 336.242846,58.7753013 336.17662,58.8746409 C336.110394,58.9739805 336.044168,59.1064314 335.977942,59.2719974 C335.911715,59.4375634 335.886881,59.6362397 335.903437,59.8680321 C335.919994,60.0998246 335.89516,60.3316135 335.828933,60.563406 C335.79582,60.728972 335.746151,60.8945356 335.679924,61.0601016 C335.613698,61.2256676 335.630254,61.3746748 335.729594,61.5071276 C335.696481,61.5733541 335.679924,61.6313013 335.679924,61.6809711 C335.679924,61.7306409 335.663368,61.7885882 335.630255,61.8548146 C335.597142,62.0203806 335.564029,62.227335 335.530916,62.4756841 C335.497803,62.7240331 335.415021,62.8978749 335.282568,62.9972145 C335.315681,62.8316485 335.332237,62.7074758 335.332237,62.6246928 L335.332237,62.2521711 C335.232898,62.5170767 335.141838,62.765422 335.059055,62.9972145 C334.976272,63.2290069 334.951437,63.4939086 334.984551,63.7919275 C334.951437,63.8581539 334.934881,63.9161011 334.934881,63.9657709 C334.934881,64.0154407 334.901768,64.0568316 334.835542,64.0899448 C334.934881,64.4541901 334.885212,64.8929335 334.686533,65.4061882 C334.487854,65.9194429 334.421629,66.3581863 334.487855,66.7224316 C334.520968,66.8879976 334.587194,67.0370048 334.686533,67.1694576 C334.785873,67.3019105 334.802429,67.4840304 334.736203,67.7158228 C334.60375,67.8151624 334.529246,67.9310569 334.51269,68.0635098 C334.496133,68.1959626 334.471299,68.3615261 334.438185,68.5602054 C334.338846,68.5270922 334.256064,68.5436485 334.189838,68.6098749 C334.123611,68.6761013 334.024273,68.7092141 333.89182,68.7092141 C333.660028,68.543648 333.486186,68.3284154 333.37029,68.0635098 C333.254394,67.7986041 333.080552,67.5999278 332.848759,67.467475 C332.815646,67.2356826 332.732864,67.0783972 332.600412,66.9956142 C332.467959,66.9128312 332.368621,66.7721022 332.302394,66.5734229 C332.269281,66.5071965 332.261003,66.4492493 332.277559,66.3995794 C332.294116,66.3499096 332.285838,66.2919624 332.252725,66.225736 C332.186498,66.1263964 332.120273,66.0436146 332.054046,65.9773882 L331.855368,65.7787099 C331.722915,65.5138043 331.631855,65.2323462 331.582186,64.9343274 C331.532516,64.6363085 331.458012,64.3051814 331.358673,63.9409362 C331.358673,63.8747097 331.350394,63.841597 331.333838,63.841597 C331.317281,63.841597 331.292447,63.8084843 331.259333,63.7422579 C331.193107,63.3780126 331.102047,62.9227129 330.986151,62.376345 C330.870255,61.8299771 330.84542,61.3581209 330.911647,60.9607625 C330.878533,60.8614229 330.828864,60.7786411 330.762638,60.7124147 C330.928204,59.9839241 330.994429,59.1974973 330.961316,58.3531105 C330.928203,57.5087237 331.010985,56.7057405 331.209664,55.9441368 C331.27589,55.7785707 331.333838,55.6461199 331.383507,55.5467803 C331.433177,55.4474407 331.491124,55.3149898 331.557351,55.1494238 C331.557351,55.0831974 331.549073,54.9921374 331.532516,54.8762412 C331.515959,54.760345 331.524238,54.6527287 331.557351,54.553389 C331.590464,54.2884834 331.631855,54.0732508 331.681525,53.9076847 C331.731195,53.7421187 331.772585,53.5765552 331.805699,53.4109891 C331.474567,53.6427816 331.151718,53.9159614 330.837142,54.2305369 C330.522567,54.5451124 330.183161,54.8514049 329.818916,55.1494238 C329.65335,55.3149898 329.520899,55.463997 329.42156,55.5964498 C329.32222,55.7289027 329.189769,55.8447971 329.024203,55.9441368 C328.89175,56.0765896 328.767578,56.1759277 328.651681,56.2421541 C328.535785,56.3083805 328.411613,56.4077187 328.27916,56.5401715 C327.815575,57.0037564 327.327162,57.450778 326.813908,57.8812497 C326.300653,58.3117213 325.812241,58.7587429 325.348656,59.2223278 C325.18309,59.3216674 325.034082,59.4458401 324.90163,59.5948495 C324.769177,59.743859 324.603613,59.8349189 324.404934,59.8680321 C324.239368,59.9673717 324.065526,60.0667099 323.883404,60.1660495 C323.701281,60.2653891 323.527439,60.3812836 323.361873,60.5137364 C323.295647,60.3812836 323.179752,60.3233364 323.014186,60.339893 C322.84862,60.3564496 322.732726,60.3150587 322.666499,60.2157191 C322.500933,60.2488323 322.293979,60.3067795 322.04563,60.3895625 C321.797281,60.4723455 321.673108,60.4143983 321.673108,60.2157191 C321.341976,60.3481719 321.077074,60.3150592 320.878395,60.1163799 C320.679716,59.9177007 320.464483,59.7521371 320.232691,59.6196843 C320.166464,59.4210051 320.116795,59.2388852 320.083682,59.0733191 C320.050569,58.9077531 320.034013,58.7421896 320.034013,58.5766235 C320.034013,58.5103971 320.042291,58.4855626 320.058847,58.5021192 C320.075404,58.5186758 320.100238,58.4938413 320.133352,58.4276148 C320.034012,58.295162 319.992621,58.1378766 320.009178,57.955754 C320.025734,57.7736314 320.050569,57.5749551 320.083682,57.3597193 C320.116795,57.1444834 320.14163,56.937529 320.158186,56.7388498 C320.174743,56.5401705 320.133352,56.3580506 320.034013,56.1924846 C319.669767,56.6229563 319.288971,57.0203088 318.891613,57.384554 C318.494254,57.7487993 318.113458,58.1461518 317.749213,58.5766235 C317.682986,58.6428499 317.625039,58.7256317 317.575369,58.8249713 C317.525699,58.9243109 317.451196,59.0070927 317.351856,59.0733191 C317.28563,59.1395456 317.219404,59.1974928 317.153178,59.2471626 C317.086952,59.2968324 317.020726,59.3547797 316.9545,59.4210061 C316.590254,59.7521381 316.217737,60.1163779 315.836935,60.5137364 C315.456133,60.9110949 315.033946,61.242222 314.570361,61.5071276 C314.504134,61.5071276 314.471022,61.4988495 314.471022,61.4822929 C314.471022,61.4657363 314.437909,61.4574581 314.371683,61.4574581 C314.272343,61.6230241 314.106779,61.7720313 313.874987,61.9044841 C313.874987,61.9707106 313.858431,62.0121014 313.825317,62.028658 C313.792204,62.0452146 313.792204,62.1031619 313.825317,62.2025015 C313.560412,62.4674072 313.29551,62.7736997 313.030604,63.1213884 C312.765699,63.4690771 312.500797,63.8250387 312.235891,64.189284 C312.169665,64.2555104 312.111718,64.3051794 312.062048,64.3382926 C312.012378,64.3714059 311.954431,64.4210749 311.888204,64.4873013 C311.755752,64.7190938 311.615023,64.9757173 311.466013,65.2571795 C311.317004,65.5386418 311.076937,65.5634763 310.745805,65.3316839 C310.679578,65.2985707 310.613353,65.315127 310.547126,65.3813534 C310.4809,65.4475799 310.414675,65.4475799 310.348448,65.3813534 C310.514014,65.2820138 310.671299,65.199232 310.820309,65.1330056 C310.969318,65.0667792 311.126604,64.9839974 311.29217,64.8846578 C311.19283,64.7190918 311.027267,64.6611445 310.795474,64.7108144 C310.563682,64.7604842 310.398118,64.8018751 310.298779,64.8349883 C310.298779,64.7687618 310.307057,64.7439273 310.323613,64.7604839 C310.34017,64.7770405 310.381561,64.7687623 310.447787,64.7356491 C310.447787,64.6694227 310.422953,64.6031973 310.373283,64.5369709 C310.323613,64.4707445 310.315335,64.4045191 310.348448,64.3382926 C310.116656,64.2720662 309.884867,64.1478936 309.653074,63.9657709 C309.421282,63.7836483 309.222606,63.6098066 309.057039,63.4442405 C308.990813,63.4442405 308.974257,63.4690751 309.00737,63.5187449 C309.040483,63.5684147 309.00737,63.5932492 308.908031,63.5932492 C308.808691,63.5932492 308.783857,63.5435802 308.833526,63.4442405 C308.883196,63.3449009 308.891474,63.2455628 308.858361,63.1462232 C308.692795,63.0799968 308.585179,62.9227114 308.535509,62.6743623 C308.485839,62.4260133 308.427892,62.2025025 308.361666,62.0038233 L308.262327,61.805145 C308.229213,61.7389186 308.179544,61.7223622 308.113318,61.7554755 C308.047091,61.9541547 308.038813,62.1362746 308.088483,62.3018406 C308.138153,62.4674067 308.146431,62.6329702 308.113318,62.7985362 C308.013978,62.7323098 307.964309,62.6412499 307.964309,62.5253537 L307.964309,62.1528319 C307.997422,62.0866055 307.980866,62.0700492 307.91464,62.1031624 C307.848413,62.1362756 307.8153,62.1031629 307.8153,62.0038233 C307.682848,61.639578 307.658013,61.2256691 307.740796,60.7620842 C307.823579,60.2984993 307.881526,59.9011468 307.91464,59.5700148 C307.91464,59.5369015 307.980865,59.5203452 308.113318,59.5203452 C308.378223,58.9243075 308.709351,58.4276168 309.106709,58.0302583 C309.504068,57.6328999 309.90142,57.2024346 310.298779,56.7388498 C310.265665,56.6063969 310.273944,56.5318933 310.323613,56.5153367 C310.373283,56.4987801 310.381561,56.4242765 310.348448,56.2918237 C310.514014,56.2255973 310.638187,56.1428155 310.72097,56.0434759 C310.803753,55.9441363 310.927925,55.8613545 311.093492,55.7951281 L311.192831,55.7951281 C311.325283,55.6626753 311.4329,55.4805554 311.515683,55.2487629 C311.598466,55.0169705 311.672969,54.7686251 311.739196,54.5037195 L311.937874,53.7090065 C312.0041,53.4441009 312.119995,53.2288682 312.285561,53.0633022 C312.384901,53.0633022 312.459404,52.9970768 312.509074,52.864624 C312.558744,52.7321711 312.633247,52.6990584 312.732587,52.7652848 C312.931266,52.5666056 313.113386,52.351373 313.278952,52.1195805 C313.444518,51.8877881 313.626638,51.6559991 313.825317,51.4242067 C313.858431,51.3579803 313.899821,51.3248676 313.949491,51.3248676 C313.999161,51.3248676 314.040552,51.3083112 314.073665,51.275198 C314.139892,51.2089716 314.181283,51.1427462 314.197839,51.0765197 C314.214396,51.0102933 314.23923,50.9440679 314.272343,50.8778415 C314.404796,50.8116151 314.487578,50.7453897 314.520691,50.6791633 C314.586918,50.5798236 314.644865,50.50532 314.694535,50.4556502 C314.744205,50.4059804 314.818708,50.3480332 314.918048,50.2818068 C315.083614,50.1493539 315.207786,50.0169031 315.290569,49.8844503 C315.373352,49.7519974 315.480969,49.6195466 315.613422,49.4870938 C315.679648,49.3877542 315.754152,49.3132506 315.836935,49.2635808 C315.919718,49.2139109 315.994221,49.1559637 316.060448,49.0897373 C316.39158,48.725492 316.747541,48.3695304 317.128343,48.0218417 C317.509145,47.6741531 317.881663,47.3513041 318.245908,47.0532853 C318.510814,46.8877192 318.742603,46.7055993 318.941282,46.5069201 C319.139961,46.3082409 319.37175,46.126121 319.636656,45.9605549 C319.702882,45.9274417 319.76083,45.8777727 319.8105,45.8115462 C319.860169,45.7453198 319.918117,45.6956508 319.984343,45.6625376 C320.116796,45.5631979 320.282359,45.4969725 320.481039,45.4638593 C320.679718,45.4307461 320.861838,45.381077 321.027404,45.3148506 C321.226083,45.2486242 321.408203,45.1658424 321.573769,45.0665028 C321.739335,44.9671632 321.904899,44.9174941 322.070465,44.9174941 C322.136691,44.8843809 322.194638,44.84299 322.244308,44.7933202 C322.293978,44.7436504 322.351925,44.7022595 322.418152,44.6691463 C322.550604,44.6691463 322.70789,44.6774245 322.890012,44.6939811 C323.072135,44.7105377 323.196308,44.7850413 323.262534,44.9174941 C323.924798,45.0168338 324.413211,45.2651791 324.727786,45.6625376 C325.042362,46.059896 325.41488,46.4075795 325.845351,46.7055983 C325.911578,47.0367304 325.977803,47.3595793 326.04403,47.6741548 C326.110256,47.9887303 326.0937,48.2784665 325.99436,48.5433721 C326.060586,48.6095985 326.093699,48.6592676 326.093699,48.6923808 C326.027473,48.9572865 325.986082,49.2221881 325.969525,49.4870938 C325.952969,49.7519994 325.977803,50.0334575 326.04403,50.3314763 C326.739407,49.7685518 327.335436,49.172523 327.832134,48.5433721 C328.328832,47.9142212 328.957973,47.3678615 329.719577,46.9042766 C329.719577,46.8380502 329.736133,46.7883811 329.769247,46.7552679 C329.80236,46.7221547 329.818916,46.6559293 329.818916,46.5565897 C329.984482,46.4241368 330.17488,46.291686 330.390116,46.1592332 C330.605352,46.0267803 330.79575,45.8612168 330.961316,45.6625376 C331.193109,45.5963111 331.400063,45.4804167 331.582186,45.3148506 C331.764308,45.1492846 331.954706,45.0168338 332.153386,44.9174941 C332.352065,44.7519281 332.542463,44.5780864 332.724586,44.3959637 C332.906708,44.2138411 333.08055,44.023443 333.246116,43.8247638 C333.90838,43.3611789 334.520965,42.897601 335.08389,42.4340161 C335.646814,41.9704312 336.342181,41.6724168 337.170011,41.539964 C337.236238,41.5730772 337.285907,41.614468 337.31902,41.6641379 C337.352133,41.7138077 337.385246,41.7551986 337.418359,41.7883118 C337.650152,41.7883118 337.832271,41.7717554 337.964724,41.7386422 C338.030951,41.8048686 338.047507,41.8379813 338.014394,41.8379813 C337.981281,41.8379813 337.964724,41.871094 337.964724,41.9373204 C338.163403,42.0366601 338.36208,42.1442764 338.560759,42.2601726 C338.759438,42.3760688 338.991227,42.4009034 339.256133,42.3346769 C339.322359,42.4009034 339.388585,42.4836851 339.454811,42.5830247 C339.521038,42.6823644 339.587263,42.7320334 339.653489,42.7320334 C339.620376,42.831373 339.653489,42.9141548 339.752828,42.9803812 C339.852168,43.0466076 339.918393,43.1128331 339.951507,43.1790595 Z M341.83895,67.6164837 C341.872063,67.5502573 341.905176,67.4509192 341.938289,67.3184663 C341.971402,67.1860135 342.021071,67.0370063 342.087298,66.8714403 C341.623713,66.7721007 341.242917,66.4906426 340.944898,66.0270577 C340.646879,65.5634728 340.41509,65.0833386 340.249524,64.5866405 C340.183298,64.6528669 340.175019,64.7190923 340.224689,64.7853187 C340.274359,64.8515451 340.282637,64.9508832 340.249524,65.0833361 C340.117071,65.0171097 340.001177,64.9757188 339.901837,64.9591622 C339.802498,64.9426056 339.719716,64.9012147 339.653489,64.8349883 C339.55415,64.5038562 339.496202,64.1561727 339.479646,63.7919275 C339.463089,63.4276822 339.421698,63.0634424 339.355472,62.6991971 C339.421698,62.6991971 339.454811,62.6826408 339.454811,62.6495276 C339.454811,62.6164144 339.471367,62.599858 339.504481,62.599858 C339.537594,62.0038203 339.587263,61.3995133 339.653489,60.786919 C339.719716,60.1743247 339.852167,59.6362432 340.050846,59.1726583 C340.117072,58.013696 340.315748,56.9540893 340.646881,55.9938063 C340.978013,55.0335233 341.276027,54.0070293 341.540933,52.9142935 C341.706499,52.7156143 341.805837,52.4921035 341.83895,52.2437544 C341.872063,51.9954054 341.921732,51.7222255 341.987959,51.4242067 C342.120412,51.1261878 342.252862,50.7536698 342.385315,50.3066415 C342.517768,49.8596133 342.666775,49.4539826 342.832341,49.0897373 C342.898568,48.9572845 342.939959,48.84139 342.956515,48.7420504 C342.973072,48.6427107 343.014463,48.5102599 343.080689,48.3446939 C343.113802,48.2784675 343.138637,48.212242 343.155193,48.1460156 C343.17175,48.0797892 343.196585,48.0135638 343.229698,47.9473374 C343.329037,47.7486581 343.411819,47.5417037 343.478046,47.3264679 C343.544272,47.111232 343.610497,46.9042776 343.676724,46.7055983 C343.709837,46.6724851 343.74295,46.5814252 343.776063,46.4324158 C343.809176,46.2834063 343.858845,46.1426773 343.925072,46.0102245 C343.958185,45.9439981 344.007854,45.894329 344.07408,45.8612158 C344.140307,45.8281026 344.156863,45.7287645 344.12375,45.5631984 L344.223089,45.5631984 C344.355542,45.1327267 344.512827,44.7353742 344.69495,44.371129 C344.877072,44.0068837 345.067471,43.6757566 345.26615,43.3777377 C345.26615,42.9141528 345.373766,42.5416349 345.589002,42.2601726 C345.804238,41.9787103 345.944967,41.6889741 346.011193,41.3909553 C346.209872,40.7286911 346.44994,40.1740533 346.731402,39.727025 C347.012864,39.2799967 347.269488,38.7750278 347.50128,38.2121033 L347.600619,38.2121033 C348.064204,37.35116 348.494669,36.5481768 348.892028,35.8031296 C349.289386,35.0580825 349.719851,34.2385429 350.183436,33.3444863 C350.282776,33.3444863 350.365558,33.2285918 350.431784,32.9967994 C350.69669,32.6656673 350.928479,32.326262 351.127158,31.9785734 C351.325837,31.6308847 351.557626,31.3245921 351.822532,31.0596865 C352.021211,30.5961016 352.228166,30.2070273 352.443401,29.8924518 C352.658637,29.5778763 352.882148,29.2384711 353.11394,28.8742258 C353.180167,28.6093201 353.296061,28.4023657 353.461627,28.2533563 C353.627193,28.1043468 353.743088,27.8973924 353.809314,27.6324868 C353.743088,27.4669207 353.64375,27.4006953 353.511297,27.4338085 C353.511297,27.2020161 353.54441,27.0198962 353.610636,26.8874433 C353.676863,26.7549905 353.776201,26.6473742 353.908653,26.5645912 C354.041106,26.4818082 354.173557,26.4073046 354.30601,26.3410782 C354.438463,26.2748517 354.554357,26.1589573 354.653697,25.9933912 C354.719923,26.1258441 354.835818,26.1920695 355.001384,26.1920695 C355.332516,25.9271638 355.680199,25.6788185 356.044445,25.4470261 C356.40869,25.2152336 356.789486,25.0662264 357.186845,25 C357.253071,25.0662264 357.286184,25.1241737 357.286184,25.1738435 C357.286184,25.2235133 357.319296,25.2814605 357.385523,25.3476869 C357.25307,25.4139133 357.128897,25.4387479 357.013001,25.4221913 C356.897105,25.4056347 356.806045,25.4304692 356.739818,25.4966956 C356.772932,25.7616013 356.87227,25.8940521 357.037836,25.8940521 C357.203402,25.8940521 357.368965,25.9106085 357.534531,25.9437217 C357.567645,25.8112688 357.600757,25.7119307 357.633871,25.6457043 C357.666984,25.5794779 357.766322,25.5629215 357.931888,25.5960347 C357.931888,25.6622612 357.940166,25.703652 357.956723,25.7202086 C357.973279,25.7367652 357.965001,25.7781561 357.931888,25.8443825 C357.965001,25.8774958 358.01467,25.9023303 358.080897,25.9188869 C358.147123,25.9354435 358.130567,26.0099471 358.031227,26.1423999 C358.097453,26.1423999 358.147123,26.1258436 358.180236,26.0927304 C358.213349,26.0596171 358.246462,26.0761735 358.279575,26.1423999 C358.345801,26.1755131 358.354079,26.2086258 358.30441,26.241739 C358.25474,26.2748522 358.263018,26.3245213 358.329244,26.3907477 C358.527924,26.4569741 358.627262,26.3907487 358.627262,26.1920695 C358.792828,26.1920695 358.908722,26.2582949 358.974949,26.3907477 C358.875609,26.5563138 358.850775,26.7135991 358.900444,26.8626086 C358.950114,27.011618 358.941836,27.1689034 358.87561,27.3344694 C358.941836,27.3675826 358.991505,27.3593044 359.024618,27.3096346 C359.057731,27.2599648 359.107401,27.268243 359.173627,27.3344694 C359.107401,27.5662618 359.107401,27.7483817 359.173627,27.8808346 C359.239853,28.0132874 359.322635,28.0795128 359.421975,28.0795128 C359.322635,28.1457392 359.297801,28.2450774 359.34747,28.3775302 C359.39714,28.509983 359.388862,28.6093211 359.322636,28.6755475 C359.355749,28.741774 359.421974,28.7748867 359.521314,28.7748867 C359.521314,28.8742263 359.513036,28.9735644 359.496479,29.072904 C359.479923,29.1722437 359.504757,29.2550254 359.570983,29.3212518 C359.63721,29.3543651 359.670323,29.3460869 359.670323,29.2964171 C359.670323,29.2467473 359.703435,29.2550254 359.769662,29.3212518 C359.769662,29.5861575 359.77794,29.8345028 359.794496,30.0662953 C359.811053,30.2980877 359.835888,30.5133203 359.869001,30.7119996 C359.802774,31.0762448 359.719993,31.5398228 359.620653,32.1027473 C359.653766,32.1358605 359.63721,32.1524168 359.570983,32.1524168 C359.604097,32.3510961 359.546149,32.5828851 359.39714,32.8477907 C359.248131,33.1126964 359.140514,33.327929 359.074288,33.493495 C358.941835,33.6259478 358.842497,33.8080677 358.77627,34.0398602 C358.710044,34.2716526 358.627262,34.4703289 358.527923,34.6358949 C358.461696,34.7683477 358.387193,34.8925204 358.30441,35.0084166 C358.221627,35.1243128 358.147123,35.2319292 358.080897,35.3312688 C357.948444,35.5630612 357.849106,35.8114065 357.782879,36.0763122 C357.716653,36.3412178 357.617315,36.6061195 357.484862,36.8710252 C357.418635,37.003478 357.302741,37.1524852 357.137175,37.3180512 C356.971609,37.5167305 356.847436,37.7402413 356.764653,37.9885903 C356.68187,38.2369394 356.574254,38.4770065 356.441801,38.708799 L356.292792,38.708799 C356.226566,38.8081386 356.168619,38.9323112 356.118949,39.0813207 C356.069279,39.2303301 355.994776,39.3710591 355.895436,39.5035119 C355.862323,39.6028516 355.82921,39.6607988 355.796097,39.6773554 C355.762984,39.693912 355.729871,39.7353029 355.696758,39.8015293 C355.597418,39.9670953 355.489802,40.1409371 355.373906,40.3230597 C355.258009,40.5051823 355.166949,40.6955804 355.100723,40.8942597 C355.001383,40.9935993 354.910323,41.1094938 354.82754,41.2419466 C354.744757,41.3743994 354.68681,41.5234066 354.653697,41.6889726 C354.190112,42.3512368 353.734812,43.0797164 353.287784,43.8744333 C352.840756,44.6691503 352.435125,45.496968 352.07088,46.3579114 L351.921871,46.3579114 C351.855645,46.5234774 351.797697,46.6393719 351.748028,46.7055983 C351.698358,46.7718248 351.673523,46.9373883 351.673523,47.202294 C351.276165,47.5003128 351.077488,47.8976653 351.077488,48.3943634 C351.044375,48.3612502 351.027819,48.3281375 351.027819,48.2950243 C351.027819,48.2619111 350.994706,48.2287984 350.92848,48.1956852 C350.82914,48.328138 350.754637,48.4854234 350.704967,48.667546 C350.655297,48.8496687 350.564237,49.006954 350.431784,49.1394069 C350.829143,49.1062936 351.234773,49.0152337 351.648688,48.8662243 C352.062604,48.7172148 352.451678,48.6261549 352.815923,48.5930417 C352.948376,48.5268153 353.089105,48.5019807 353.238114,48.5185373 C353.387124,48.5350939 353.49474,48.4771467 353.560967,48.3446939 C353.792759,48.4440335 354.099052,48.4357553 354.479853,48.3198591 C354.860655,48.2039629 355.183504,48.1294593 355.44841,48.0963461 C355.746429,48.0632329 356.094112,48.0963456 356.491471,48.1956852 C356.756376,48.1294588 357.021278,48.1129024 357.286184,48.1460156 C357.551089,48.1791288 357.799435,48.0963471 358.031227,47.8976678 C358.395472,47.9638942 358.817659,48.0135633 359.297801,48.0466765 C359.777942,48.0797897 360.216686,48.1625715 360.614044,48.2950243 C360.845837,48.2950243 361.085904,48.3033025 361.334253,48.3198591 C361.582602,48.3364157 361.806113,48.444032 362.004792,48.6427112 C362.60083,48.7420509 363.072686,48.9572835 363.420374,49.2884155 C363.768063,49.6195476 364.19025,49.8678929 364.686948,50.033459 C364.753175,50.199025 364.852513,50.2818068 364.984966,50.2818068 C365.183645,50.5467124 365.324374,50.8281705 365.407157,51.1261893 C365.48994,51.4242082 365.663782,51.6559971 365.928687,51.8215632 C365.961801,52.0864688 366.036304,52.3099796 366.1522,52.4921022 C366.268097,52.6742249 366.375713,52.8480666 366.475053,53.0136326 C366.574392,53.1791987 366.665452,53.3695968 366.748235,53.5848326 C366.831018,53.8000684 366.855853,54.0566919 366.822739,54.3547108 C366.822739,54.4209372 366.847574,54.4540499 366.897244,54.4540499 C366.946914,54.4540499 366.971748,54.4871626 366.971748,54.553389 C366.905522,54.9176343 366.888965,55.2570396 366.922079,55.5716151 C366.955192,55.8861905 366.971748,56.1759267 366.971748,56.4408324 C366.905522,56.705738 366.814462,57.0037524 366.698566,57.3348845 C366.582669,57.6660166 366.491609,57.9971437 366.425383,58.3282757 C366.359157,58.3613889 366.301209,58.3945016 366.251539,58.4276148 C366.20187,58.460728 366.177035,58.5600662 366.177035,58.7256322 C366.077696,58.692519 366.019748,58.7256317 366.003192,58.8249713 C365.986635,58.9243109 365.978357,58.9905364 365.978357,59.0236496 C365.91213,59.1229892 365.796236,59.205771 365.63067,59.2719974 C365.299538,60.0004879 364.910464,60.6130731 364.463435,61.1097712 C364.016407,61.6064693 363.577664,62.1362726 363.147192,62.6991971 C363.080965,62.6991971 363.056131,62.6826408 363.072688,62.6495276 C363.089244,62.6164144 363.06441,62.599858 362.998183,62.599858 C362.898844,62.765424 362.774671,62.8895967 362.625661,62.9723797 C362.476652,63.0551627 362.319367,63.1296663 362.153801,63.1958927 C362.087574,63.0303267 362.137243,62.906154 362.302809,62.823371 C362.468375,62.740588 362.600826,62.6660844 362.700166,62.599858 C362.733279,62.5336316 362.725001,62.4839625 362.675331,62.4508493 C362.625661,62.4177361 362.617383,62.368067 362.650496,62.3018406 C362.749836,62.3018406 362.799505,62.2521716 362.799505,62.1528319 C362.667052,62.0534923 362.559436,62.0617705 362.476653,62.1776667 C362.39387,62.2935629 362.30281,62.4011793 362.20347,62.5005189 C361.938565,62.8316509 361.648828,63.0965526 361.334253,63.2952319 C361.019677,63.4939111 360.696829,63.7091437 360.365696,63.9409362 C360.167017,64.0402758 359.976619,64.1727266 359.794496,64.3382926 C359.612374,64.5038587 359.421976,64.6363095 359.223297,64.7356491 L359.024618,64.7356491 C358.726599,64.9674416 358.412029,65.1495615 358.080897,65.2820143 C357.749765,65.4144671 357.45175,65.6296998 357.186845,65.9277186 C357.021278,65.7952658 356.872271,65.7869876 356.739818,65.9028838 C356.607366,66.0187801 356.474915,66.10984 356.342462,66.1760664 C355.878877,66.3416325 355.415299,66.5154742 354.951714,66.6975968 C354.488129,66.8797195 354.057664,67.1197866 353.660306,67.4178055 C353.627192,67.3846923 353.560967,67.3681359 353.461627,67.3681359 C353.064269,67.6330415 352.592413,67.7654924 352.046045,67.7654924 C351.499677,67.7654924 351.027821,67.7986051 350.630462,67.8648315 C350.564236,67.8648315 350.522845,67.8482752 350.506289,67.8151619 C350.489732,67.7820487 350.448341,67.7323797 350.382115,67.6661533 C350.216549,67.8979457 350.067541,67.955893 349.935089,67.8399967 C349.802636,67.7241005 349.653629,67.6661533 349.488062,67.6661533 C349.421836,67.6661533 349.380445,67.6413187 349.363889,67.5916489 C349.347332,67.5419791 349.322497,67.5005882 349.289384,67.467475 C349.123818,67.4012486 348.991367,67.4095268 348.892028,67.4923098 C348.792688,67.5750928 348.660237,67.6164837 348.494671,67.6164837 C348.494671,67.5502573 348.519506,67.5005882 348.569176,67.467475 C348.618845,67.4343618 348.660236,67.3846927 348.69335,67.3184663 C348.59401,67.1197871 348.436725,66.9707799 348.221489,66.8714403 C348.006253,66.7721007 347.766186,66.738988 347.50128,66.7721012 C347.468167,66.6727615 347.459889,66.6148143 347.476445,66.5982577 C347.493002,66.5817011 347.50128,66.5237538 347.50128,66.4244142 C347.435054,66.391301 347.393663,66.3995792 347.377106,66.449249 C347.36055,66.4989188 347.319159,66.4906406 347.252932,66.4244142 C347.252932,66.3581878 347.26121,66.3167969 347.277767,66.3002403 C347.294324,66.2836837 347.302602,66.2422928 347.302602,66.1760664 C347.170149,66.10984 347.087367,65.9773892 347.054254,65.7787099 C347.021141,65.5800307 346.905246,65.4475799 346.706567,65.3813534 C346.706567,65.3482402 346.690011,65.3068493 346.656897,65.2571795 C346.623784,65.2075097 346.640341,65.1661188 346.706567,65.1330056 C346.607227,65.0998924 346.516167,65.0998924 346.433384,65.1330056 C346.350601,65.1661188 346.242985,65.1661188 346.110532,65.1330056 C346.110532,64.9674396 346.151923,64.892936 346.234706,64.9094926 C346.317489,64.9260492 346.391993,64.917771 346.458219,64.8846578 C346.35888,64.7190918 346.209872,64.7025354 346.011193,64.8349883 C345.944967,64.7025354 345.944967,64.586641 346.011193,64.4873013 C346.07742,64.3879617 346.127089,64.2886236 346.160202,64.189284 C346.127089,64.1561708 346.07742,64.1561708 346.011193,64.189284 C345.944967,64.2223972 345.895298,64.2058408 345.862185,64.1396144 C345.795958,64.073388 345.78768,64.0402753 345.83735,64.0402753 C345.88702,64.0402753 345.895298,64.0071626 345.862185,63.9409362 C345.829071,63.8415965 345.78768,63.7919275 345.738011,63.7919275 C345.688341,63.7919275 345.64695,63.8250402 345.613837,63.8912666 C345.54761,63.791927 345.54761,63.700867 345.613837,63.618084 C345.680063,63.535301 345.713176,63.444241 345.713176,63.3449014 C345.680063,63.2455618 345.605559,63.2207273 345.489663,63.2703971 C345.373767,63.3200669 345.282707,63.3449014 345.21648,63.3449014 C345.249593,63.0799958 345.307541,62.906154 345.390324,62.823371 C345.473107,62.740588 345.531054,62.5667463 345.564167,62.3018406 C345.531054,62.2356142 345.489663,62.1942233 345.439993,62.1776667 C345.390323,62.1611101 345.382045,62.1362756 345.415158,62.1031624 C345.348932,62.036936 345.332376,61.9789887 345.365489,61.9293189 C345.398602,61.8796491 345.398602,61.8217019 345.365489,61.7554755 C345.299262,61.7554755 345.26615,61.7968663 345.26615,61.8796494 C345.26615,61.9624324 345.216481,61.9872669 345.117141,61.9541537 C345.017801,62.3515122 344.910185,62.7323083 344.794289,63.0965536 C344.678393,63.4607989 344.521107,63.8084823 344.322428,64.1396144 C344.289315,64.073388 344.239646,64.0237189 344.173419,63.9906057 C344.107193,63.9574925 344.07408,63.9078234 344.07408,63.841597 C343.908514,64.1396159 343.742951,64.5038557 343.577385,64.9343274 C343.411819,65.3647991 343.213142,65.7621516 342.98135,66.1263969 C342.98135,66.1926233 342.997906,66.2505705 343.03102,66.3002403 C343.064133,66.3499101 343.047576,66.4078574 342.98135,66.4740838 C342.915124,66.4078574 342.824064,66.4161356 342.708167,66.4989186 C342.592271,66.5817016 342.501211,66.6893179 342.434985,66.8217707 C342.401872,66.8548839 342.360481,66.8548839 342.310811,66.8217707 C342.261141,66.7886575 342.21975,66.7886575 342.186637,66.8217707 C342.087297,66.9873368 342.021072,67.1363439 341.987959,67.2687968 C341.954846,67.4012496 341.905176,67.5171441 341.83895,67.6164837 Z M345.613837,60.6130755 C345.978082,60.8779812 346.342322,60.9773193 346.706567,60.9110929 C347.070812,60.8448665 347.368827,60.6958593 347.600619,60.4640669 C347.766185,60.5965197 347.923471,60.6213542 348.07248,60.5385712 C348.221489,60.4557882 348.378775,60.3978409 348.544341,60.3647277 C348.610567,60.3647277 348.635402,60.3895623 348.618845,60.4392321 C348.602289,60.4889019 348.627123,60.5302928 348.69335,60.563406 C348.958255,60.3978399 349.223157,60.2488328 349.488062,60.1163799 C349.752968,59.9839271 349.968201,59.8018072 350.133767,59.5700148 C350.233106,59.603128 350.299332,59.603128 350.332445,59.5700148 C350.365558,59.5369015 350.382115,59.4872325 350.382115,59.4210061 C350.382115,59.3547797 350.415227,59.3051106 350.481454,59.2719974 C350.845699,59.1395446 351.143713,58.9408683 351.375506,58.6759626 C351.640411,58.4772834 351.92187,58.2786071 352.219888,58.0799279 C352.517907,57.8812487 352.815922,57.7156851 353.11394,57.5832323 C353.180167,57.5501191 353.238114,57.5335627 353.287784,57.5335627 C353.337454,57.5335627 353.395401,57.5170064 353.461627,57.4838932 C353.627193,57.3514403 353.776201,57.2189895 353.908653,57.0865367 C354.041106,56.9540839 354.20667,56.821633 354.405349,56.6891802 C354.471575,56.6229538 354.546079,56.5815629 354.628862,56.5650063 C354.711645,56.5484497 354.786149,56.5070588 354.852375,56.4408324 C355.017941,56.4408324 355.175227,56.3580506 355.324236,56.1924846 C355.473245,56.0269185 355.630531,55.8944677 355.796097,55.7951281 C355.82921,55.6626753 355.870601,55.5467808 355.920271,55.4474412 C355.969941,55.3481015 355.978219,55.1990943 355.945105,55.0004151 C355.911992,55.0004151 355.911992,54.9838587 355.945105,54.9507455 C355.978219,54.8182927 356.044444,54.7272328 356.143784,54.677563 C356.243123,54.6278931 356.342461,54.5699459 356.441801,54.5037195 C355.945103,54.4374931 355.481525,54.4292149 355.051053,54.4788847 C354.620582,54.5285545 354.198395,54.6196145 353.78448,54.7520673 C353.370564,54.8845201 352.964934,55.0252491 352.567575,55.1742586 C352.170217,55.323268 351.772864,55.463997 351.375506,55.5964498 C351.176827,55.8944687 350.895369,56.093145 350.531123,56.1924846 C350.49801,56.093145 350.489732,56.0434759 350.506289,56.0434759 C350.522845,56.0434759 350.531123,56.0269195 350.531123,55.9938063 C349.67018,56.2918252 348.834084,56.6312305 348.02281,57.0120323 C347.211537,57.3928342 346.557561,58.1130357 346.060863,59.1726583 C345.994636,59.2057715 345.986358,59.2388842 346.036028,59.2719974 C346.085698,59.3051106 346.110532,59.371336 346.110532,59.4706756 C346.011193,59.6362417 345.911855,59.793527 345.812515,59.9425365 C345.713175,60.0915459 345.64695,60.3150567 345.613837,60.6130755 Z M348.097315,60.8614233 C348.064202,60.7951969 347.948307,60.7786406 347.749628,60.8117538 C347.550949,60.844867 347.418498,60.9607615 347.352271,61.1594407 C347.65029,61.0269879 347.898636,60.9276498 348.097315,60.8614233 Z M367.269765,52.6162762 C367.335992,52.5500497 367.43533,52.4424334 367.567783,52.293424 C367.700236,52.1444146 367.824408,51.9871292 367.940305,51.8215632 C368.056201,51.6559971 368.163817,51.5152681 368.263157,51.3993719 C368.362496,51.2834757 368.428722,51.2255284 368.461835,51.2255284 C368.859193,50.6626039 369.273102,50.1410787 369.703574,49.6609372 C370.134046,49.1807958 370.531398,48.6592706 370.895643,48.0963461 C371.392342,47.7321008 371.773138,47.2436883 372.038043,46.631094 C372.302949,46.0184997 372.567851,45.5797563 372.832756,45.3148506 C372.832756,45.2486242 372.807922,45.2072333 372.758252,45.1906767 C372.708582,45.1741201 372.667191,45.1492856 372.634078,45.1161724 L372.783087,44.7436507 C372.8162,44.6608677 372.915538,44.6194768 373.081104,44.6194768 L373.180443,44.6194768 C373.544689,44.1227787 374.024823,43.8413206 374.620861,43.7750942 C375.216898,43.7088678 375.779814,43.5598606 376.309626,43.3280682 C376.342739,43.3280682 376.392408,43.3942936 376.458634,43.5267464 C376.955332,43.5267464 377.476858,43.6178064 378.023226,43.799929 C378.569593,43.9820516 379.024893,44.2055624 379.389138,44.4704681 L379.438808,44.4704681 C379.505034,44.4704681 379.521591,44.4373554 379.488478,44.371129 C379.455364,44.3049025 379.471921,44.2717898 379.538147,44.2717898 C379.703713,44.4373559 380.001728,44.6111976 380.432199,44.7933202 C380.862671,44.9754429 381.144129,45.0665028 381.276582,45.0665028 L381.624269,45.0665028 C381.690495,45.0665028 381.89745,45.1492846 382.245138,45.3148506 C382.592827,45.4804167 382.832894,45.6294238 382.965347,45.7618767 C383.064687,45.7618767 383.114356,45.7453203 383.114356,45.7122071 C383.180582,45.9439996 383.379258,46.059894 383.71039,46.059894 C383.80973,46.059894 383.875955,46.0433377 383.909069,46.0102245 C383.909069,46.1426773 384.049798,46.3496317 384.33126,46.631094 C384.612722,46.9125563 384.919015,47.1940143 385.250147,47.4754765 C385.581279,47.7569388 385.887571,47.9970059 386.169034,48.1956852 L386.591225,48.4937026 C387.220376,49.0566271 387.758457,49.6857686 388.205486,50.3811459 C388.652514,51.0765232 388.876025,51.8546719 388.876025,52.7156153 C388.876025,52.8480681 388.859468,52.9722408 388.826355,53.088137 C388.793242,53.2040332 388.776686,53.3116495 388.776686,53.4109891 L388.776686,53.8083456 C388.776686,54.669289 388.586288,55.4060468 388.205486,56.0186411 C387.824684,56.6312354 387.38594,57.169317 386.889242,57.6329019 C386.823016,57.8646943 386.698843,58.0137015 386.516721,58.0799279 C386.334598,58.1461543 386.210425,58.2786052 386.144199,58.4772844 L386.094529,58.4276148 C385.99519,58.4276148 385.771679,58.5849002 385.42399,58.8994757 C385.076302,59.2140511 384.72034,59.5451782 384.356095,59.8928669 C383.991849,60.2405556 383.677279,60.5634045 383.412373,60.8614233 C383.147467,61.1594422 383.048129,61.2753367 383.114356,61.2091103 C382.981903,61.4077895 382.76667,61.6230221 382.468651,61.8548146 C382.170632,62.086607 381.831227,62.318396 381.450425,62.5501884 C381.069623,62.7819809 380.672271,63.0054917 380.258356,63.2207275 C379.844441,63.4359634 379.43881,63.6098051 379.041452,63.7422579 C378.312961,64.1065032 377.576203,64.5286902 376.831156,65.0088317 C376.086109,65.4889732 375.448689,65.7290404 374.918878,65.7290404 C374.786425,65.7290404 374.687087,65.712484 374.620861,65.6793708 C374.587747,65.7455972 374.546356,65.7952663 374.496687,65.8283795 C374.447017,65.8614927 374.405626,65.9111618 374.372513,65.9773882 C374.306286,65.944275 374.264895,65.9194404 374.248339,65.9028838 C374.231782,65.8863272 374.190391,65.8780491 374.124165,65.8780491 C373.495014,66.1098415 372.799647,66.225736 372.038043,66.225736 C371.574458,66.225736 371.143993,66.1760669 370.746635,66.0767273 C370.349276,65.9773877 370.034706,65.8118241 369.802913,65.5800317 L369.604235,65.5800317 C369.273103,65.5800317 368.983367,65.4889717 368.735018,65.3068491 C368.486669,65.1247265 368.263158,64.917772 368.064478,64.6859796 C367.865799,64.4541871 367.658845,64.21412 367.443609,63.9657709 C367.228373,63.7174219 366.988306,63.5104675 366.7234,63.3449014 C366.557834,62.9806561 366.433662,62.6743636 366.350879,62.4260145 C366.268096,62.1776655 366.094254,61.8713729 365.829348,61.5071276 L365.829348,61.3084494 C365.829348,61.1428834 365.812792,60.9690416 365.779679,60.786919 C365.746565,60.6047964 365.730009,60.4309546 365.730009,60.2653886 C365.796235,60.1329358 365.845905,60.0253195 365.879018,59.9425365 C365.912131,59.8597534 365.928687,59.7355808 365.928687,59.5700148 L365.928687,58.2289366 C365.928687,58.0633706 365.920409,57.8895288 365.903853,57.7074062 C365.887296,57.5252836 365.879018,57.3514418 365.879018,57.1858758 C365.879018,56.8878569 365.91213,56.656068 365.978357,56.4905019 L365.978357,56.2918237 C365.978357,55.7288992 366.135642,55.1411486 366.450218,54.5285543 C366.764793,53.9159599 367.054529,53.3613221 367.319435,52.864624 C367.319435,52.8315108 367.311157,52.8066762 367.2946,52.7901196 C367.278044,52.773563 367.269765,52.7487285 367.269765,52.7156153 L367.269765,52.6162762 Z M373.826148,58.526954 C374.223506,58.3613879 374.596024,58.2041026 374.943713,58.0550931 C375.291401,57.9060837 375.61425,57.6825729 375.912269,57.384554 L376.011608,57.4342236 C376.177174,57.4342236 376.301347,57.35972 376.38413,57.2107106 C376.466913,57.0617012 376.591086,56.9871976 376.756652,56.9871976 L376.855991,56.9871976 C376.922217,56.8547447 377.145728,56.6560685 377.52653,56.3911628 C377.907332,56.1262572 378.321241,55.8447991 378.768269,55.5467803 C379.215297,55.2487614 379.645762,54.950747 380.059678,54.6527282 C380.473593,54.3547093 380.763329,54.106364 380.928895,53.9076847 C380.962008,53.8745715 381.069624,53.7917898 381.251747,53.6593369 C381.43387,53.5268841 381.624268,53.3613206 381.822947,53.1626413 C382.021626,52.9639621 382.203746,52.7321731 382.369312,52.4672675 C382.534878,52.2023618 382.61766,51.9043474 382.61766,51.5732154 C382.61766,51.2751965 382.5266,51.0102948 382.344477,50.7785024 C382.162355,50.5467099 381.947122,50.3314773 381.698773,50.1327981 C381.450424,49.9341188 381.193801,49.7437208 380.928895,49.5615981 C380.663989,49.3794755 380.465313,49.1890774 380.33286,48.9903982 C379.703709,49.6526623 379.082846,50.3314728 378.470252,51.0268502 C377.857657,51.7222275 377.120899,52.583158 376.259956,53.6096674 C375.630805,54.3712711 375.043055,55.1328635 374.496687,55.8944672 C373.950319,56.656071 373.495019,57.4011069 373.130774,58.1295975 L373.279782,58.1295975 C373.445348,58.1295975 373.544687,58.1792665 373.5778,58.2786062 C373.610913,58.3779458 373.693695,58.4607275 373.826148,58.526954 Z M388.776686,46.5069201 C388.61112,46.2751277 388.56145,46.010226 388.627677,45.7122071 C388.693903,45.4141883 388.776685,45.1492866 388.876025,44.9174941 C389.041591,44.9837205 389.165763,45.0168333 389.248546,45.0168333 C389.331329,45.0168333 389.455502,45.049946 389.621068,45.1161724 C389.687295,44.9506063 389.836302,44.8678246 390.068094,44.8678246 C390.333,45.0002774 390.539954,45.1575628 390.688964,45.3396854 C390.837973,45.521808 391.011815,45.7287625 391.210494,45.9605549 C391.243607,45.9274417 391.235329,45.894329 391.185659,45.8612158 C391.13599,45.8281026 391.111155,45.7784335 391.111155,45.7122071 C391.276721,45.6459807 391.376059,45.6790934 391.409172,45.8115462 C391.442286,45.9439991 391.475398,46.0433372 391.508511,46.1095636 C391.607851,46.2751296 391.723746,46.4075805 391.856198,46.5069201 C391.988651,46.6062597 392.087989,46.7387106 392.154216,46.9042766 C392.220442,47.0367294 392.286668,47.1609021 392.352894,47.2767983 C392.41912,47.3926945 392.518459,47.4837545 392.650911,47.5499809 C392.684025,47.6162073 392.708859,47.6989891 392.725416,47.7983287 C392.741972,47.8976683 392.783363,47.9804501 392.84959,48.0466765 C392.915816,48.2453557 393.006876,48.4191975 393.122772,48.5682069 C393.238668,48.7172163 393.379397,48.8910581 393.544963,49.0897373 C393.61119,49.1559637 393.644303,49.2221891 393.644303,49.2884155 C393.644303,49.3546419 393.677415,49.4208674 393.743642,49.4870938 C393.809868,49.5864334 393.876094,49.7023279 393.94232,49.8347807 C394.008546,49.9672335 394.107885,50.0500153 394.240337,50.0831285 C394.273451,50.1493549 394.273451,50.1824676 394.240337,50.1824676 C394.207224,50.1824676 394.190668,50.199024 394.190668,50.2321372 C394.323121,50.3314768 394.422459,50.4556495 394.488685,50.6046589 C394.554912,50.7536683 394.670806,50.8612847 394.836372,50.9275111 C394.935712,51.391096 395.175779,51.7470576 395.556581,51.9954066 C395.937383,52.2437557 396.17745,52.5500482 396.276789,52.9142935 C396.939053,52.4507086 397.559917,51.9622962 398.139398,51.4490415 C398.718879,50.9357868 399.356299,50.4308179 400.051676,49.9341198 C400.051676,49.9010066 400.059954,49.8678939 400.076511,49.8347807 C400.093067,49.8016675 400.101346,49.7519984 400.101346,49.685772 C400.167572,49.7188852 400.250354,49.7354416 400.349693,49.7354416 C400.614599,49.5367624 400.871223,49.3298079 401.119572,49.1145721 C401.367921,48.8993362 401.641101,48.7089381 401.939119,48.5433721 C402.104685,48.4771457 402.261971,48.4109203 402.41098,48.3446939 C402.55999,48.2784675 402.717275,48.1956857 402.882841,48.0963461 C403.114633,47.93078 403.31331,47.7486601 403.478876,47.5499809 C403.644442,47.3513016 403.876231,47.2022945 404.17425,47.1029548 C404.17425,46.9373888 404.190806,46.8214943 404.223919,46.7552679 C404.323259,46.7221547 404.397762,46.7304329 404.447432,46.7801027 C404.497102,46.8297725 404.555049,46.8711634 404.621276,46.9042766 C405.581559,46.4406917 406.492158,46.3082409 407.353102,46.5069201 C407.419328,46.5069201 407.452441,46.4820856 407.452441,46.4324158 C407.452441,46.3827459 407.485553,46.3910241 407.55178,46.4572505 C407.618006,46.7221562 407.742179,46.854607 407.924302,46.854607 C408.106424,46.854607 408.280266,46.8711634 408.445832,46.9042766 C408.346492,47.0036162 408.338214,47.086398 408.420997,47.1526244 C408.50378,47.2188508 408.545171,47.2850762 408.545171,47.3513026 C408.379605,47.3513026 408.271989,47.2850772 408.222319,47.1526244 C408.172649,47.0201716 408.081589,46.9870589 407.949136,47.0532853 C408.114702,47.1526249 408.247153,47.3181884 408.346493,47.5499809 C408.445832,47.7817733 408.561727,48.0135623 408.69418,48.2453547 C408.727293,48.278468 408.768684,48.278468 408.818354,48.2453547 C408.868023,48.2122415 408.909414,48.2122415 408.942528,48.2453547 C409.008754,48.4771472 409.083258,48.6261544 409.166041,48.6923808 C409.248824,48.7586072 409.323327,48.8745017 409.389554,49.0400677 C409.323327,49.238747 409.331605,49.4374232 409.414388,49.6361025 C409.497171,49.8347817 409.555119,50.0500143 409.588232,50.2818068 C409.654458,50.2818068 409.679293,50.2486941 409.662736,50.1824676 C409.64618,50.1162412 409.671014,50.0996849 409.737241,50.1327981 C409.803467,50.2321377 409.803467,50.3480322 409.737241,50.480485 C409.671014,50.6129378 409.654458,50.7453887 409.687571,50.8778415 C409.687571,50.9440679 409.720684,50.9523461 409.78691,50.9026763 C409.853136,50.8530065 409.886249,50.8447283 409.886249,50.8778415 C409.820023,51.1758604 409.704128,51.4242057 409.538562,51.6228849 C409.372996,51.8215642 409.240545,52.0367968 409.141206,52.2685892 C409.074979,52.3017024 409.017032,52.3348151 408.967362,52.3679283 C408.917692,52.4010416 408.859745,52.4175979 408.793519,52.4175979 C408.727292,52.4838243 408.636232,52.607997 408.520336,52.7901196 C408.40444,52.9722423 408.296824,53.0964149 408.197484,53.1626413 L408.048475,53.1626413 C407.882909,53.2619809 407.700789,53.4192663 407.50211,53.6345022 C407.303431,53.849738 407.071642,54.0566924 406.806736,54.2553717 C406.674284,54.3215981 406.558389,54.3878235 406.459049,54.4540499 L406.161032,54.6527282 L406.061693,54.6527282 C405.896127,54.7520678 405.780232,54.8596841 405.714006,54.9755803 C405.64778,55.0914765 405.581554,55.1990928 405.515328,55.2984325 C405.349762,55.2653193 405.192476,55.2901538 405.043467,55.3729368 C404.894458,55.4557198 404.737172,55.5467798 404.571606,55.6461194 C404.074908,56.0434779 403.528548,56.4325522 402.932511,56.8133541 C402.336473,57.194156 401.823226,57.5997867 401.392754,58.0302583 C402.055018,58.5931829 402.800054,59.0567608 403.627884,59.4210061 L403.627884,59.5700148 C404.290149,59.9011468 405.060019,60.2653866 405.937519,60.6627451 C406.815019,61.0601036 407.684228,61.3746743 408.545171,61.6064668 C408.74385,61.63958 408.942527,61.6975272 409.141206,61.7803102 C409.339885,61.8630933 409.538561,61.9210405 409.737241,61.9541537 C409.803467,61.9872669 409.886249,61.9955451 409.985588,61.9789885 C410.084928,61.9624319 410.184266,61.9707101 410.283606,62.0038233 C410.416059,62.0038233 410.523675,62.0203796 410.606458,62.0534928 C410.689241,62.086606 410.813414,62.086606 410.97898,62.0534928 C411.078319,62.0203796 411.260439,62.0038233 411.525345,62.0038233 C411.525345,62.2025025 411.657796,62.4011788 411.922701,62.599858 C411.955814,62.599858 412.005483,62.5833016 412.07171,62.5501884 C412.137936,62.5170752 412.187605,62.5336316 412.220719,62.599858 C412.121379,62.765424 411.98065,62.856484 411.798527,62.8730406 C411.616405,62.8895972 411.492232,62.9806571 411.426006,63.1462232 C411.459119,63.1793364 411.50051,63.2041709 411.550179,63.2207275 C411.599849,63.2372841 411.64124,63.2952314 411.674353,63.394571 C411.575014,63.4939106 411.483954,63.5766924 411.401171,63.6429188 C411.318388,63.7091452 411.210771,63.791927 411.078319,63.8912666 C411.111432,64.0237194 411.094876,64.1230576 411.028649,64.189284 L410.829971,64.3879622 C410.664405,64.3879622 410.565067,64.3714059 410.531953,64.3382926 C410.465727,64.3714059 410.440893,64.4045186 410.457449,64.4376318 C410.474006,64.470745 410.449171,64.5038577 410.382945,64.5369709 C409.952473,64.6031973 409.571677,64.6859791 409.240545,64.7853187 C408.909413,64.8846583 408.528617,64.9343274 408.098145,64.9343274 C408.031919,64.9674406 408.02364,64.9922751 408.07331,65.0088317 C408.12298,65.0253883 408.147815,65.0667792 408.147815,65.1330056 C408.015362,65.1330056 407.907745,65.1578402 407.824962,65.20751 C407.742179,65.2571798 407.667676,65.315127 407.601449,65.3813534 C407.435883,65.315127 407.228929,65.2406234 406.98058,65.1578404 C406.732231,65.0750574 406.525276,65.0667792 406.35971,65.1330056 C406.194144,65.0667792 406.020303,65.0171102 405.83818,64.9839969 C405.656057,64.9508837 405.482216,64.9012147 405.31665,64.8349883 C405.283536,64.8349883 405.26698,64.868101 405.26698,64.9343274 C404.836508,64.7687614 404.397765,64.5783633 403.950737,64.3631274 C403.503708,64.1478916 403.064965,63.9078244 402.634493,63.6429188 C402.568267,63.6429188 402.526876,63.6594751 402.510319,63.6925883 C402.493763,63.7257016 402.452372,63.7257016 402.386145,63.6925883 C401.922561,63.4276827 401.458983,63.1462247 400.995398,62.8482058 C400.531813,62.5501869 400.068235,62.2190598 399.60465,61.8548146 C399.538424,61.8217014 399.497033,61.8299795 399.480476,61.8796494 C399.463919,61.9293192 399.439085,61.921041 399.405972,61.8548146 C399.339745,61.6230221 399.141069,61.5402404 398.809937,61.6064668 C398.644371,61.4077875 398.462251,61.2505022 398.263572,61.1346059 C398.064893,61.0187097 397.84966,60.9110934 397.617868,60.8117538 C396.723811,61.6726972 395.722151,62.4756804 394.612859,63.2207275 C393.503567,63.9657747 392.319787,64.6859761 391.061485,65.3813534 C391.061485,65.2820138 390.99526,65.149563 390.862807,64.9839969 C390.432335,65.0502234 390.051539,65.2240651 389.720407,65.5055273 C389.389275,65.7869896 389.041592,66.0105004 388.677346,66.1760664 C388.544894,66.1760664 388.462112,66.1926228 388.428999,66.225736 C388.362772,66.2919624 388.27999,66.3499096 388.180651,66.3995794 C388.081311,66.4492493 387.998529,66.391302 387.932303,66.225736 C387.568058,66.391302 387.261765,66.391302 387.013416,66.225736 C386.765067,66.06017 386.458775,66.0105009 386.094529,66.0767273 C386.193869,65.9111613 386.193869,65.7621541 386.094529,65.6297012 C385.99519,65.4972484 385.928964,65.3647976 385.895851,65.2323448 C385.763398,64.9674391 385.779955,64.7522065 385.945521,64.5866405 C386.111087,64.4210744 386.193868,64.1561727 386.193868,63.7919275 C386.458774,63.6263614 386.715398,63.419407 386.963747,63.171058 C387.212096,62.9227089 387.385937,62.6329727 387.485277,62.3018406 C387.816409,62.0700482 388.081311,61.8134247 388.27999,61.5319624 C388.478669,61.2505002 388.710458,60.9773203 388.975364,60.7124147 C389.04159,60.6461883 389.074703,60.5634065 389.074703,60.4640669 C389.273382,60.3647272 389.430668,60.21572 389.546564,60.0170408 C389.66246,59.8183616 389.803189,59.6196853 389.968755,59.4210061 C390.167434,59.2223268 390.382667,59.0402069 390.614459,58.8746409 C390.846252,58.7090749 390.995259,58.4772859 391.061485,58.179267 C391.127712,58.1461538 391.218772,58.1213193 391.334668,58.1047627 C391.450564,58.0882061 391.475399,57.9971461 391.409172,57.8315801 C391.541625,57.8315801 391.624407,57.7984674 391.65752,57.732241 C391.922426,57.4673353 392.179049,57.1775991 392.427398,56.8630237 C392.675747,56.5484482 392.965484,56.2918247 393.296616,56.0931455 C393.197276,55.9606926 393.263501,55.8282418 393.495294,55.695789 C393.164162,55.1659777 392.841313,54.6527307 392.526737,54.1560326 C392.212162,53.6593345 391.8562,53.1792002 391.458842,52.7156153 C391.458842,52.4507096 391.384338,52.2520334 391.235329,52.1195805 C391.086319,51.9871277 390.929034,51.7718951 390.763468,51.4738762 C390.697242,51.3083102 390.622738,51.1344685 390.539955,50.9523458 C390.457172,50.7702232 390.382668,50.5798251 390.316442,50.3811459 C390.183989,50.083127 390.034982,49.7933908 389.869416,49.5119286 C389.70385,49.2304663 389.571399,48.9572865 389.472059,48.6923808 C389.37272,48.4274751 389.298216,48.1460171 389.248546,47.8479983 C389.198877,47.5499794 389.124373,47.3016341 389.025033,47.1029548 C388.925694,46.8380492 388.909137,46.5897039 388.975364,46.3579114 C388.842911,46.2254586 388.80152,46.2006241 388.85119,46.2834071 C388.90086,46.3661901 388.876025,46.4406937 388.776686,46.5069201 Z M389.621068,45.5135289 C389.554842,45.4141892 389.488616,45.3645202 389.42239,45.3645202 L389.42239,45.4638593 C389.42239,45.4969725 389.438946,45.5135289 389.472059,45.5135289 L389.621068,45.5135289 Z M406.558389,46.7055983 C406.558389,46.6062587 406.50872,46.5565897 406.40938,46.5565897 C406.31004,46.5565897 406.227258,46.5897024 406.161032,46.6559288 C406.260372,46.6228156 406.326597,46.6228156 406.35971,46.6559288 C406.392824,46.689042 406.459049,46.7055983 406.558389,46.7055983 Z M411.326666,62.7985362 C411.326666,62.9309891 411.276997,63.0137708 411.177658,63.0468841 C411.177658,62.9806576 411.227327,62.8978759 411.326666,62.7985362 Z" id="jambox"></path>
        </g>
    </g>
</svg>